####
#
# OBJ File Generated by Meshlab
#
####
# Object 0.obj
#
# Vertices: 100
# Faces: 164
#
####
vn 1.5637358910967836 0.2783601491133478 -6.0789390967113253
v 85.1927557711766923 -66.7454338132098712 -266.2550559673491080
vn 1.5194688605196851 0.3130834864905549 -6.0886191490958534
v 85.8328433602153638 -65.6286496700539885 -266.0417799193782002
vn 1.7844418885911901 0.2952434593214185 -6.0170846118371006
v 82.7453239602327812 -66.3674113658209848 -266.9133462567974107
vn 1.8919305335291321 0.2796723123573667 -5.9849022652936013
v 81.2673982637516019 -66.8763097452427360 -267.3904412426076078
vn 1.4613997152522478 0.2953606755549138 -6.1036075256277202
v 86.7005037139221884 -66.4165762796945103 -265.8667295320419157
vn 1.7591294850636643 0.0313250777694322 -6.0317537168839452
v 83.7025912893402193 -78.3018595275801488 -266.9344683765127684
vn 1.6606342499101236 0.1496789728507405 -6.0576006205840756
v 84.3638911016274591 -71.4223661117891595 -266.6362065499848200
vn 1.6879342181106289 0.1057650021506993 -6.0510235976506230
v 84.2670619444463398 -74.3175219462797543 -266.7232321186826312
vn 1.5849370293699627 0.0284020900211986 -6.0798216069832609
v 85.9005583678886921 -77.0927321011470781 -266.3214596943516312
vn 1.5262612563712410 0.1307751465056472 -6.0933814590949797
v 86.0358216283004111 -72.0586845770091173 -266.2132705900651217
vn 1.6332347358840065 0.1918492596299190 -6.0639967363144578
v 84.5825339214080287 -69.6261914712776502 -266.5285150417379327
vn 1.8590569501822203 0.3833674565904108 -5.9894468795180700
v 81.6011772541824030 -62.6551612344464104 -267.0471233887330982
vn 1.9728755066957742 0.3392183614016639 -5.9557289546763608
v 79.8747303685664320 -64.8762324889441828 -267.7393759353535643
vn 1.9269406207816853 0.1810760612340472 -5.9775148663855280
v 80.8387035117799115 -70.1146541687955533 -267.6518545161758311
vn 1.8283847793676058 0.2066658819927821 -6.0076038141982062
v 82.1236115933054265 -69.3187317479265062 -267.2239994336804898
vn 1.5412890554985150 0.3706343249408076 -6.0798682582098316
v 85.5459774113126343 -64.2804224191701081 -266.0382224290029853
vn 1.7464540008390146 0.1818334775970071 -6.0327358393068256
v 83.1611998881868431 -70.2145677676385276 -266.9446834987361967
vn 0.6231179957156150 0.0964618975724572 -2.8036187958592205
v 88.6825927535860927 -68.6637218323580214 -265.5108593680927243
vn 0.9413925647435757 0.1622744644099942 -2.8044341960454018
v 78.9905414573843387 -64.7598660941828115 -268.0294471281729329
vn 1.7324242327033863 0.3376479855034488 -6.0299453390559297
v 83.2825411564975155 -64.8184953573545641 -266.6754054392572471
vn 0.7757078062202416 0.1829482722535316 -2.6085119476155820
v 82.5805515687444114 -60.9316408472488646 -266.6314264455872376
vn 1.7846563470599417 0.4061222007595582 -6.0105077488274148
v 82.7029435835470679 -61.8368835628904989 -266.6585193441111983
vn 1.8026769858052258 0.1140345990673521 -6.0178205044021373
v 82.6942646600882512 -74.2591255004383157 -267.1792728718917829
vn 1.5827264711116116 0.4015634586121145 -6.0672155160035857
v 85.0419969492226073 -62.9526303610239495 -266.0807233165545540
vn 0.7102222754621398 0.0011959473823600 -2.5088951580617533
v 84.7332254532974645 -79.6260373637103527 -266.6399419341195198
vn 0.6835377915158590 0.0548878238913615 -3.0454377116135749
v 88.8573109375000030 -72.2744937499999907 -265.5603906249999682
vn 0.6889194437388989 0.0321286656146784 -2.9795094016412884
v 88.7275942812326406 -74.0761109480684894 -265.6121585742037041
vn 1.4618913182272093 0.0718873202144586 -6.1102733911259381
v 87.2939841426218948 -74.4563069048698765 -265.9501110166310696
vn 1.6280655411757534 0.0784025109323218 -6.0678163269376295
v 85.0648975594156411 -75.7185226364234296 -266.5265469403839234
vn 0.7098833236076565 0.1812316114485806 -2.6872850302858788
v 85.1925176112137308 -61.8292436723061911 -265.9657592828655766
vn 1.8080412493320761 0.2512712221523933 -6.0120368047739410
v 82.3795437081157473 -67.8815105493972908 -267.0915787658185536
vn 0.9642021715446132 0.1089016159357091 -2.8312334672860855
v 78.4524257812499854 -68.6278687500000046 -268.4037343749999991
vn 1.9997438725364733 0.2051214377938454 -5.9528840427676926
v 79.6221350166970296 -69.2922488619449126 -268.0291716359469660
vn 0.6486062809087205 0.0699181907325125 -2.9223079054398333
v 88.9064245630640784 -70.5617210522438683 -265.5171299115783654
vn 0.6766339136944237 0.1655898244145243 -2.4121738055355211
v 83.9444851562499821 -60.9191109375000011 -266.2376171874999500
vn 1.8332602537039371 0.3626016559136638 -5.9987441618278989
v 82.0151013359559897 -64.0324860854541669 -267.0068333392051727
vn 1.7558926547874647 0.3814582521440161 -6.0206073777666571
v 83.0123447367223832 -63.1045435959046870 -266.6506633965360038
vn 0.6762594791408122 0.0143559563851670 -2.8426657348904012
v 88.4344937500000015 -75.8231453125000030 -265.6912031249999586
vn 1.5962846577094700 0.2368830911874547 -6.0722007795864164
v 84.9410502736214568 -68.1770504264777060 -266.3808690631131526
vn 0.8898536474705303 0.1926070286418260 -2.8237482910695553
v 80.9365593750000016 -61.7085632812499938 -267.1935625000000414
vn 1.4084253679296403 0.1751926200474358 -6.1206609363132420
v 87.4410284767536439 -69.7590458896409586 -265.8204074840479052
vn 1.5059237026439272 0.2041177718197120 -6.0964133077075502
v 86.1261485858984770 -69.0317536673019418 -266.1094291375056287
vn 1.7578441120748018 0.0896513005511440 -6.0314691469835600
v 83.4348392605405138 -75.6127606776004910 -266.9833798118960431
vn 1.5067784616974012 0.1056727180312488 -6.0988070108039345
v 86.2896922794627557 -73.3746056727127041 -266.1764675533264040
vn 1.6169203336226856 0.1185571567414479 -6.0701699429219094
v 85.0087454622874930 -73.0473398845327182 -266.4978117571191660
vn 0.7268982939826524 0.1678138902072113 -2.9792750665644672
v 87.0073050169061588 -64.8260202090144304 -265.7098132242809925
vn 1.6704977034100643 0.3006461616039591 -6.0493485266041951
v 83.9200561576171395 -66.1874248339603639 -266.5665477657192355
vn 1.6007220899752104 0.3210719731511407 -6.0672403744938235
v 84.6828576732592211 -65.3110347044774500 -266.3179308174852622
vn 0.8779421412285249 0.1665745792926124 -2.6554342444516434
v 79.5025023168323060 -63.1638788653504264 -267.7604759853342671
vn 1.6396665474994312 0.3770855337621383 -6.0535737097520821
v 84.3033382569980034 -63.7349395352666619 -266.3273365640836801
vn 1.8355054401322690 0.1767148635746476 -6.0063831640126564
v 82.0617871172377278 -70.6123717613907758 -267.2830662736679415
vn 1.4264769206295471 0.1046299929977064 -6.1181365124881957
v 87.5904352231512036 -72.9263325154551723 -265.8573734342364219
vn 1.7214634245243476 0.2259543162945825 -6.0383688481846960
v 83.4445428244587220 -68.6948277320752823 -266.8114831373349034
vn 1.7408398156416263 0.1287189721443253 -6.0356915359864445
v 83.4942325616156893 -72.9517399337861434 -266.9176860377329490
vn 0.7659971779036769 -0.0078169078543547 -2.9478104137420305
v 86.6043227633456354 -78.4079225184473216 -266.1382643106962291
vn 1.4728004262126726 0.2425857246600132 -6.1031601437164582
v 86.4694716546060391 -67.7005320586686139 -265.9780728892019965
vn 1.4194362983908499 0.1356903289631769 -6.1190128594372002
v 87.4297465754746952 -71.3300441063021680 -265.8603155318589302
vn 1.7076481013762654 0.0564860369302795 -6.0461788503641944
v 84.2233898664362641 -77.0273613728721074 -266.7732148205589056
vn 1.8135805098229121 0.0672790449317480 -6.0152957754338141
v 82.6717440186068444 -76.9657103280844552 -267.2285381686958203
vn 1.6627051523226355 0.0059728675218169 -6.0590588143177113
v 85.0838016802014465 -78.2959492415897103 -266.5423388837100447
vn 1.9149679759698095 0.2295481541038210 -5.9796970084315140
v 81.0067113684085598 -68.5490590914506583 -267.5443398693491304
vn 1.9837622994047270 0.1479075971622962 -5.9598964952119804
v 79.7773187923920375 -71.4412862486503002 -268.0368496885873242
vn 1.8468972443234519 0.0946520744964409 -6.0048042557204910
v 81.9365480401338857 -75.5754228755528317 -267.4332351256120432
vn 1.0067404751686853 0.1354451486408439 -2.9648507474403925
v 78.6249414062500023 -67.3566054687499900 -268.2901874999999450
vn 0.7465190300884426 0.1950394984972184 -2.9533036706061768
v 86.0626528334710770 -63.1215919412061268 -265.8323601095341360
vn 1.6899526935587663 0.2692056420387963 -6.0454556982409944
v 83.7723230857134951 -67.3579830181857062 -266.6637167388333296
vn 1.5103340108937100 0.0502024645952148 -6.0986471464483634
v 86.8927088624251667 -75.8873209007485059 -266.0607746925871879
vn 0.6917116571096049 0.1293090783754740 -3.0176869484618845
v 88.0750351562500100 -67.1480335937499859 -265.5840937499999654
vn 0.9780164545752215 0.0720935071129635 -2.8825931724427774
v 78.7449712325614399 -71.3277111524740945 -268.3840841765186269
vn 1.4037844280357334 0.2179037024478390 -6.1203976384838654
v 87.4388849998357074 -68.4768640377745754 -265.7797947213431939
vn 1.9059229528346191 0.1171567204828678 -5.9858584132824584
v 81.0130356445542361 -74.2456360247199711 -267.6984017400595803
vn 1.9190951059373382 0.0944099267236890 -5.9820917221412939
v 80.8514587850454234 -75.5968688225172087 -267.7736677835637238
vn 0.9500247156304601 0.0845901053589824 -2.7915189854196965
v 78.4565515624999961 -69.7660398437500078 -268.4411953124999854
vn 0.9214507347348506 0.0429517916376351 -2.8165023791234289
v 80.3465968749999888 -76.0531156250000038 -267.9457968749999850
vn 1.7871574290353105 0.1549436852436634 -6.0215204769784894
v 82.7217941770116596 -71.6613767268046331 -267.1135996849191088
vn 0.8785404025512232 0.0199783934610038 -2.9093564822341347
v 82.3491538360333806 -78.4277685255477053 -267.3387951893903960
vn 1.5299643306259523 0.1625835095774781 -6.0916660700083414
v 85.9291195348630339 -70.5223467393834511 -266.2032959492939312
vn 1.5574564071789052 0.0932269298676700 -6.0862021956429704
v 85.8011406748165797 -74.4552251272970835 -266.3165960262111867
vn 1.8451608596088200 0.1362879632126184 -6.0044493854459917
v 81.9209245415404723 -72.9288530930367358 -267.3856110473103058
vn 0.8763382301662255 0.1799996621949697 -2.7040552437272778
v 80.1982656250000048 -62.2405125000000012 -267.4688437500000191
vn 0.6906905127676787 0.0004565938839753 -2.8820050185058719
v 88.1477078125000020 -76.5376015625000008 -265.7601093749999563
vn 0.7064218336825222 0.1594944780418613 -3.0443603614928647
v 87.5797812499999964 -66.0515953124999839 -265.6435781249999764
vn 1.0035968105652804 0.1532269273635818 -2.9720410821674088
v 78.7729531250000150 -66.3086796875000033 -268.1883124999999950
vn 1.9755873385116571 0.3004685374795811 -5.9568671106365976
v 79.9286814586372003 -66.3274465460961125 -267.7984592788561145
vn 0.7071152981861148 0.0040572212135739 -2.8619024723313720
v 87.7544640625000056 -77.1692046875000131 -265.8543906249999509
vn 0.7331877098438933 -0.0087448206957817 -2.7050188893393274
v 85.6601187499999952 -79.2495765624999962 -266.3830468749999909
vn 1.9433178610244506 0.1407340731123930 -5.9733314736061125
v 80.3713010385447717 -72.7309988878233753 -267.8716321008317891
vn 1.6732577989780468 0.4025292996773551 -6.0426922723155441
v 84.0238463040249712 -62.2713873329235668 -266.3082767991499509
vn 0.8824608026513080 0.0361512838607185 -2.8159452189278000
v 81.0010776147729956 -77.0446536512426832 -267.7463268771782623
vn 0.7397167464516688 0.0066575905658416 -2.5224244532172655
v 83.5465718750000121 -79.4254093749999868 -266.9831874999999854
vn 0.9530548922987023 0.0491054355160054 -2.9145636501328922
v 79.8696578125000087 -74.9592101562500090 -268.0845625000000041
vn 1.9884021420384792 0.2564290184337087 -5.9546660128377606
v 79.8071922118709836 -67.7601300105835662 -267.9061293670245618
vn 0.6875009151287983 0.0393757998748359 -3.0291281051712042
v 88.8266890624999945 -72.8992781249999950 -265.5764374999999973
vn 0.9869835180517503 0.0667496616818039 -2.9527393000116513
v 79.2253921874999918 -73.0399390624999967 -268.2602812500000482
vn 0.9703867796399328 0.0628451345621743 -2.9428429893011234
v 79.4635499999999979 -73.8105281250000047 -268.1970468750000123
vn 1.9193314059693090 0.3665702626064003 -5.9715378670885393
v 80.7416626279369893 -63.6596804791132911 -267.3837678718258530
vn 1.8432058790412775 0.3206642275660616 -5.9981058962070399
v 81.8408224230767445 -65.2945828728779389 -267.1330309248162393
vn 1.8956366042939456 0.1579705644103612 -5.9881869339602911
v 81.1352448904455059 -71.4902593101480193 -267.5958497316211151
vn 2.0044910243334404 0.1625713944236720 -5.9526173109726370
v 79.4277900231482334 -70.3785986856354953 -268.1271386579016962
vn 1.9146571116374929 0.3213554853291964 -5.9756636101618090
v 80.8724671804285720 -65.3695376885871440 -267.4412980405186318
# 100 vertices, 0 vertices normals

f 11//11 17//17 53//53
f 21//21 35//35 22//22
f 58//58 9//9 60//60
f 42//42 77//77 11//11
f 77//77 7//7 11//11
f 4//4 3//3 31//31
f 32//32 92//92 33//33
f 34//34 26//26 57//57
f 27//27 38//38 28//28
f 29//29 9//9 58//58
f 37//37 50//50 20//20
f 1//1 48//48 2//2
f 48//48 47//47 20//20
f 54//54 45//45 8//8
f 34//34 57//57 41//41
f 49//49 96//96 13//13
f 59//59 63//63 43//43
f 72//72 91//91 71//71
f 48//48 50//50 16//16
f 52//52 44//44 10//10
f 16//16 24//24 65//65
f 5//5 56//56 1//1
f 47//47 66//66 3//3
f 29//29 67//67 9//9
f 29//29 58//58 43//43
f 58//58 59//59 43//43
f 44//44 45//45 10//10
f 68//68 56//56 5//5
f 69//69 73//73 99//99
f 41//41 70//70 18//18
f 12//12 22//22 37//37
f 60//60 25//25 6//6
f 98//98 14//14 51//51
f 14//14 15//15 51//51
f 53//53 39//39 11//11
f 32//32 64//64 92//92
f 36//36 12//12 37//37
f 56//56 68//68 70//70
f 16//16 50//50 24//24
f 74//74 91//91 72//72
f 19//19 49//49 13//13
f 40//40 21//21 22//22
f 40//40 22//22 12//12
f 78//78 45//45 44//44
f 73//73 32//32 33//33
f 51//51 17//17 75//75
f 65//65 46//46 16//16
f 52//52 10//10 57//57
f 58//58 60//60 6//6
f 42//42 41//41 77//77
f 41//41 57//57 77//77
f 41//41 42//42 70//70
f 76//76 89//89 59//59
f 78//78 8//8 45//45
f 79//79 54//54 23//23
f 17//17 51//51 15//15
f 46//46 5//5 2//2
f 35//35 88//88 22//22
f 49//49 80//80 96//96
f 38//38 81//81 67//67
f 76//76 59//59 6//6
f 77//77 10//10 7//7
f 82//82 68//68 5//5
f 92//92 64//64 84//84
f 81//81 85//85 67//67
f 67//67 28//28 38//38
f 10//10 45//45 7//7
f 8//8 78//78 29//29
f 89//89 72//72 63//63
f 57//57 10//10 77//77
f 55//55 86//86 60//60
f 60//60 9//9 55//55
f 85//85 9//9 67//67
f 80//80 40//40 12//12
f 52//52 28//28 44//44
f 48//48 16//16 2//2
f 61//61 33//33 92//92
f 83//83 19//19 13//13
f 5//5 1//1 2//2
f 18//18 34//34 41//41
f 85//85 55//55 9//9
f 53//53 17//17 15//15
f 12//12 36//36 96//96
f 12//12 96//96 80//80
f 46//46 2//2 16//16
f 37//37 22//22 88//88
f 87//87 79//79 71//71
f 27//27 28//28 52//52
f 25//25 90//90 6//6
f 79//79 23//23 71//71
f 7//7 17//17 11//11
f 42//42 11//11 39//39
f 23//23 63//63 71//71
f 89//89 74//74 72//72
f 67//67 78//78 28//28
f 86//86 25//25 60//60
f 3//3 20//20 47//47
f 75//75 7//7 54//54
f 75//75 17//17 7//7
f 14//14 62//62 99//99
f 61//61 92//92 4//4
f 35//35 30//30 88//88
f 30//30 24//24 88//88
f 54//54 79//79 75//75
f 61//61 4//4 31//31
f 87//87 98//98 79//79
f 68//68 18//18 70//70
f 79//79 98//98 75//75
f 50//50 37//37 88//88
f 88//88 24//24 50//50
f 61//61 15//15 14//14
f 62//62 98//98 87//87
f 4//4 92//92 84//84
f 56//56 42//42 39//39
f 39//39 1//1 56//56
f 54//54 8//8 23//23
f 8//8 43//43 23//23
f 26//26 93//93 52//52
f 26//26 52//52 57//57
f 75//75 98//98 51//51
f 1//1 66//66 47//47
f 31//31 3//3 66//66
f 31//31 66//66 53//53
f 37//37 20//20 36//36
f 84//84 64//64 83//83
f 8//8 29//29 43//43
f 93//93 27//27 52//52
f 89//89 63//63 59//59
f 84//84 83//83 13//13
f 13//13 96//96 100//100
f 31//31 15//15 61//61
f 30//30 65//65 24//24
f 20//20 50//50 48//48
f 53//53 66//66 39//39
f 69//69 62//62 94//94
f 7//7 45//45 54//54
f 43//43 63//63 23//23
f 29//29 78//78 67//67
f 90//90 76//76 6//6
f 95//95 94//94 87//87
f 71//71 95//95 87//87
f 95//95 71//71 91//91
f 71//71 63//63 72//72
f 56//56 70//70 42//42
f 47//47 48//48 1//1
f 61//61 14//14 33//33
f 3//3 4//4 97//97
f 39//39 66//66 1//1
f 46//46 82//82 5//5
f 4//4 84//84 100//100
f 28//28 78//78 44//44
f 31//31 53//53 15//15
f 6//6 59//59 58//58
f 20//20 3//3 97//97
f 97//97 100//100 36//36
f 62//62 87//87 94//94
f 14//14 98//98 62//62
f 99//99 73//73 33//33
f 69//69 99//99 62//62
f 14//14 99//99 33//33
f 20//20 97//97 36//36
f 100//100 96//96 36//36
f 4//4 100//100 97//97
f 13//13 100//100 84//84
# 164 faces, 0 coords texture

# End of File
